<?xml version="1.0" encoding="UTF-8" standalone="no"?>
<svg width="453px" height="361px" viewBox="0 0 453 361" version="1.1" xmlns="http://www.w3.org/2000/svg" xmlns:xlink="http://www.w3.org/1999/xlink" xmlns:sketch="http://www.bohemiancoding.com/sketch/ns">
    <!-- Generator: Sketch 3.4.2 (15857) - http://www.bohemiancoding.com/sketch -->
    <title>LOGO</title>
    <desc>Created with Sketch.</desc>
    <defs>
        <filter x="-50%" y="-50%" width="200%" height="200%" filterUnits="objectBoundingBox" id="filter-1">
            <feOffset dx="10" dy="10" in="SourceAlpha" result="shadowOffsetOuter1"></feOffset>
            <feGaussianBlur stdDeviation="15" in="shadowOffsetOuter1" result="shadowBlurOuter1"></feGaussianBlur>
            <feColorMatrix values="0 0 0 0 0.1700946   0 0 0 0 0.145211956   0 0 0 0 0.145211956  0 0 0 0.35 0" in="shadowBlurOuter1" type="matrix" result="shadowMatrixOuter1"></feColorMatrix>
            <feMerge>
                <feMergeNode in="shadowMatrixOuter1"></feMergeNode>
                <feMergeNode in="SourceGraphic"></feMergeNode>
            </feMerge>
        </filter>
    </defs>
    <g id="Page-1" stroke="none" stroke-width="1" fill="none" fill-rule="evenodd" sketch:type="MSPage">
        <g id="Laptop" sketch:type="MSArtboardGroup" transform="translate(-53.000000, -61.000000)" filter="url(#filter-1)" fill="#15C19C">
            <g id="Rectangle-10-+-My-Name-is-Himanshu--+-Path-3" sketch:type="MSLayerGroup" transform="translate(71.000000, 79.000000)">
                <g id="LOGO" sketch:type="MSShapeGroup">
                    <path
                        d="M179.094441,143.716298 C179.094441,143.716298 205.491464,142.631647 237.16789,142.631647 C267.084516,43.3860524 302.280528,1.62697701 302.280528,1.62697701 C302.280528,1.62697701 343.929163,-4.88093095 349.208585,8.13488479 C322.224945,50.4362868 279.989727,142.631647 279.989727,142.631647 L302.280528,142.631647 C302.280528,142.631647 316.35894,127.446529 346.862183,136.123739 C346.862166,136.123739 422.53363,114.973039 355.661191,194.69491 C342.169362,209.337703 333.956955,199.033515 335.130156,193.067933 C336.303357,187.102351 357.420974,167.036302 346.862183,148.597229 C345.102364,146.970252 303.453729,179.509792 303.453746,229.946077 C303.453729,229.946077 295.24134,307.498646 385.577798,193.067933 C383.817997,189.271653 407.868617,181.679094 397.309808,194.69491 C397.309808,194.69491 345.688965,278.755386 299.934144,282.00934 C243.620496,271.705153 275.883523,171.374907 287.028933,157.27444 C288.146263,157.27444 273.537121,157.27444 273.537121,157.27444 C273.537121,157.27444 234.821489,247.842824 247.726699,278.755386 C247.726699,280.924689 243.620496,297.736784 227.782282,282.00934 C205.491464,252.181429 230.128685,161.613045 230.128684,161.613045 C182.027444,168.120953 167.362431,171.374907 167.362431,171.374907 C151.524218,204.456772 143.311811,303.160041 75.8527539,305.329343 C75.8527541,305.329343 6.04729456,307.498646 0.181289562,235.91166 C-5.68471544,164.324673 132.753002,148.597229 132.753004,148.597229 C152.110818,75.9255916 165.60263,47.1858737 171.468635,37.424012 C171.468635,37.424012 50.042332,55.3207586 56.4949375,99.2491366 C-52.0261545,20.069591 175.574838,22.7812193 175.574838,22.7812193 C175.574838,22.7812193 230.128685,20.6083749 220.156476,42.3014011 C219.024879,42.3014011 179.094441,143.716298 179.094441,143.716298 Z M122.931442,187.172175 C108.880055,230.918675 115.905748,284.386619 73.97506,293.027902 C42.7214562,294.108063 44.4778792,249.821483 44.4778792,249.821483 C44.4778792,249.821483 40.3795589,212.555947 122.931442,187.172175 Z"
                        id="Path-3"></path>
                </g>
            </g>
        </g>
    </g>
</svg>