<?xml version="1.0" encoding="UTF-8" standalone="no"?>
<svg width="500px" height="300px" viewBox="0 0 580 300" version="1.1" xmlns="http://www.w3.org/2000/svg" xmlns:xlink="http://www.w3.org/1999/xlink" xmlns:sketch="http://www.bohemiancoding.com/sketch/ns">
    <!-- Generator: Sketch 3.4.2 (15857) - http://www.bohemiancoding.com/sketch -->
    <title>rwd</title>
    <desc>Created with Sketch.</desc>
    <defs></defs>
    <g id="Page-1" stroke="none" stroke-width="1" fill="none" fill-rule="evenodd" sketch:type="MSPage">
        <g id="Laptop" sketch:type="MSArtboardGroup" transform="translate(-201.000000, -909.000000)" stroke-width="2" stroke="#F2F2F2">
            <g id="RWD" sketch:type="MSLayerGroup" transform="translate(77.000000, 864.000000)">
                <g id="rwd" sketch:type="MSShapeGroup">
                    <g transform="translate(155.000000, 90.000000)">
                        <rect id="Rectangle-21" x="158" y="0" width="256" height="176"></rect>
                        <path d="M0,200 L228,200 L223.470199,212 L129.854305,212 L73.986755,212 L6.79470199,212 L0,200 Z" id="Rectangle-23"></path>
                        <rect id="Rectangle-24" x="366" y="105" width="86" height="105"></rect>
                        <path d="M26.25,201.256757 L24.75,92.7432432" id="Line" stroke-linecap="square"></path>
                        <path d="M24.7541667,92.5 L204,92" id="Line" stroke-linecap="square"></path>
                        <path d="M203.5,92.7432432 L203.5,201.256757" id="Line" stroke-linecap="square"></path>
                        <path d="M257.5,176.730769 L257.5,194.269231" id="Line" stroke-linecap="square"></path>
                        <path d="M257,195 L247,210" id="Line" stroke-linecap="square"></path>
                        <path d="M247.75,210.5 L327.25,210.5" id="Line" stroke-linecap="square"></path>
                        <path d="M327.222222,210.25 L314.777778,193.75" id="Line" stroke-linecap="square"></path>
                        <path d="M314.5,194.269231 L314.5,176.730769" id="Line" stroke-linecap="square"></path>
                        <path d="M467.809524,148.125 L502.848485,148.125" id="Line-Copy" stroke-linecap="square"></path>
                        <path d="M467.151515,205.5 L502.190476,205.5" id="Line-Copy-3" stroke-linecap="square"></path>
                        <path d="M467.151515,208.875 L502.190476,208.875" id="Line-Copy-4" stroke-linecap="square"></path>
                        <path d="M467.151515,148.125 L467.151515,208.875" id="Line" stroke-linecap="square"></path>
                        <path d="M502.848485,148.125 L502.848485,208.875" id="Line-Copy-2" stroke-linecap="square"></path>
                    </g>
                </g>
            </g>
        </g>
    </g>
</svg>
